<?xml version="1.0" encoding="UTF-8"?>
<svg xmlns="http://www.w3.org/2000/svg" xmlns:xlink="http://www.w3.org/1999/xlink" width="40px" height="40px" viewBox="0 0 40 40" version="1.1">
<g id="surface1">
<path style=" stroke:none;fill-rule:nonzero;fill:rgb(0%,0%,0%);fill-opacity:1;" d="M 34.632812 16.6875 C 34.511719 16.6875 34.386719 16.6875 34.265625 16.6875 L 33.199219 13.820312 C 35.65625 12.425781 36.515625 9.3125 35.164062 6.851562 C 33.773438 4.394531 30.660156 3.535156 28.199219 4.886719 C 27.011719 5.542969 26.109375 6.6875 25.78125 8 L 21.972656 7.589844 C 21.683594 5.789062 20.003906 4.519531 18.203125 4.804688 C 16.5625 5.050781 15.375 6.445312 15.375 8.082031 C 15.375 8.65625 15.539062 9.230469 15.828125 9.761719 L 11.238281 14.269531 C 10.378906 13.613281 9.3125 13.246094 8.207031 13.246094 C 5.378906 13.246094 3.085938 15.539062 3.085938 18.367188 C 3.085938 21.195312 5.378906 23.488281 8.207031 23.488281 L 9.230469 29.632812 C 7.550781 30.371094 6.773438 32.339844 7.507812 34.019531 C 8.246094 35.699219 10.214844 36.476562 11.894531 35.738281 C 13.449219 35.082031 14.230469 33.363281 13.777344 31.722656 L 17.382812 29.839844 C 19.71875 32.421875 23.734375 32.625 26.355469 30.289062 C 27.667969 29.101562 28.445312 27.378906 28.445312 25.617188 C 28.445312 25.167969 28.40625 24.675781 28.28125 24.226562 L 32.257812 22.175781 C 33.484375 23.570312 35.574219 23.691406 36.96875 22.464844 C 38.363281 21.234375 38.484375 19.144531 37.253906 17.753906 C 36.476562 17.097656 35.574219 16.6875 34.632812 16.6875 Z M 34.632812 17.914062 C 35.164062 17.914062 35.574219 18.324219 35.574219 18.859375 C 35.574219 19.390625 35.164062 19.800781 34.632812 19.800781 C 34.101562 19.800781 33.691406 19.390625 33.691406 18.859375 C 33.691406 18.324219 34.101562 17.914062 34.632812 17.914062 Z M 30.699219 6.238281 C 31.476562 6.238281 32.132812 6.894531 32.132812 7.671875 C 32.132812 8.453125 31.476562 9.105469 30.699219 9.105469 C 29.921875 9.105469 29.265625 8.453125 29.265625 7.671875 C 29.265625 6.894531 29.878906 6.238281 30.699219 6.238281 Z M 27.789062 10.910156 C 27.789062 10.703125 27.914062 10.460938 28.078125 10.335938 C 28.488281 10.050781 28.980469 9.804688 29.46875 9.679688 C 29.839844 9.558594 30.25 9.515625 30.660156 9.515625 C 31.066406 9.515625 31.476562 9.597656 31.847656 9.679688 C 32.339844 9.804688 32.828125 10.050781 33.238281 10.378906 C 33.402344 10.5 33.527344 10.746094 33.527344 10.949219 L 33.527344 12.058594 L 27.789062 12.058594 Z M 18.652344 5.992188 C 19.1875 5.992188 19.597656 6.402344 19.597656 6.933594 C 19.597656 7.46875 19.1875 7.878906 18.652344 7.878906 C 18.121094 7.878906 17.710938 7.46875 17.710938 6.933594 C 17.710938 6.445312 18.121094 5.992188 18.652344 5.992188 Z M 16.726562 9.066406 C 16.726562 8.902344 16.808594 8.78125 16.933594 8.699219 C 17.21875 8.492188 17.546875 8.371094 17.875 8.289062 C 18.121094 8.207031 18.40625 8.164062 18.652344 8.164062 C 18.898438 8.164062 19.1875 8.207031 19.433594 8.289062 C 19.761719 8.371094 20.046875 8.535156 20.332031 8.738281 C 20.457031 8.820312 20.539062 8.984375 20.539062 9.105469 L 20.539062 9.84375 L 16.769531 9.84375 L 16.769531 9.066406 Z M 8.125 15.253906 C 8.902344 15.253906 9.558594 15.90625 9.558594 16.6875 C 9.558594 17.464844 8.902344 18.121094 8.125 18.121094 C 7.34375 18.121094 6.691406 17.464844 6.691406 16.6875 C 6.730469 15.90625 7.34375 15.253906 8.125 15.253906 Z M 5.253906 21.03125 L 5.253906 19.921875 C 5.253906 19.71875 5.378906 19.472656 5.542969 19.351562 C 5.953125 19.0625 6.445312 18.816406 6.933594 18.695312 C 7.304688 18.570312 7.714844 18.53125 8.125 18.53125 C 8.535156 18.53125 8.941406 18.613281 9.3125 18.695312 C 9.804688 18.816406 10.296875 19.0625 10.703125 19.390625 C 10.867188 19.515625 10.992188 19.761719 10.992188 19.964844 L 10.992188 21.070312 Z M 12.34375 34.386719 L 8.535156 34.386719 L 8.535156 33.648438 C 8.535156 33.484375 8.617188 33.363281 8.738281 33.28125 C 9.023438 33.074219 9.351562 32.910156 9.679688 32.828125 C 9.925781 32.746094 10.214844 32.707031 10.460938 32.707031 C 10.703125 32.707031 10.992188 32.746094 11.238281 32.828125 C 11.566406 32.910156 11.851562 33.074219 12.136719 33.28125 C 12.261719 33.363281 12.34375 33.527344 12.34375 33.648438 Z M 9.476562 31.519531 C 9.476562 30.984375 9.886719 30.578125 10.417969 30.578125 C 10.949219 30.578125 11.359375 30.984375 11.359375 31.519531 C 11.359375 32.050781 10.949219 32.460938 10.417969 32.460938 C 9.925781 32.503906 9.515625 32.050781 9.476562 31.519531 Z M 12.753906 30.371094 C 12.21875 29.839844 11.484375 29.511719 10.746094 29.429688 L 9.722656 23.285156 C 10.703125 22.957031 11.566406 22.339844 12.179688 21.519531 L 15.988281 23.53125 C 15.375 25.167969 15.5 27.011719 16.316406 28.570312 Z M 16.769531 22.011719 L 13 20.046875 C 13.164062 19.515625 13.246094 18.980469 13.246094 18.40625 C 13.246094 17.34375 12.917969 16.316406 12.300781 15.457031 L 16.890625 10.992188 C 18.449219 11.933594 20.496094 11.484375 21.4375 9.925781 C 21.5625 9.722656 21.644531 9.515625 21.726562 9.3125 L 25.535156 9.722656 C 25.617188 11.195312 26.355469 12.589844 27.542969 13.492188 L 24.183594 19.761719 C 21.519531 18.695312 18.449219 19.636719 16.769531 22.011719 Z M 23.734375 23.53125 C 23.734375 24.511719 22.914062 25.289062 21.929688 25.289062 C 20.949219 25.289062 20.167969 24.511719 20.167969 23.53125 C 20.167969 22.546875 20.949219 21.765625 21.929688 21.765625 C 21.929688 21.765625 21.929688 21.765625 21.972656 21.765625 C 22.957031 21.765625 23.734375 22.546875 23.734375 23.53125 Z M 25.496094 28.898438 L 18.40625 28.898438 L 18.40625 27.542969 C 18.40625 27.257812 18.53125 27.011719 18.777344 26.847656 C 19.308594 26.480469 19.882812 26.191406 20.496094 25.988281 C 20.988281 25.863281 21.480469 25.78125 21.972656 25.78125 C 22.464844 25.78125 22.957031 25.863281 23.449219 25.988281 C 24.0625 26.152344 24.675781 26.4375 25.167969 26.847656 C 25.371094 27.011719 25.535156 27.296875 25.535156 27.542969 Z M 31.3125 20.046875 C 31.3125 20.292969 31.355469 20.539062 31.4375 20.785156 L 27.667969 22.75 C 27.214844 21.847656 26.519531 21.113281 25.699219 20.539062 L 29.0625 14.269531 C 29.59375 14.472656 30.167969 14.554688 30.738281 14.554688 C 31.066406 14.554688 31.394531 14.515625 31.722656 14.472656 L 32.789062 17.34375 C 31.804688 17.914062 31.273438 18.941406 31.3125 20.046875 Z M 36.515625 21.683594 L 32.707031 21.683594 L 32.707031 20.949219 C 32.707031 20.785156 32.789062 20.660156 32.910156 20.578125 C 33.199219 20.375 33.527344 20.210938 33.855469 20.128906 C 34.101562 20.046875 34.386719 20.003906 34.632812 20.003906 C 34.878906 20.003906 35.164062 20.046875 35.410156 20.128906 C 35.738281 20.210938 36.027344 20.375 36.3125 20.578125 C 36.433594 20.660156 36.515625 20.824219 36.515625 20.949219 Z M 36.515625 21.683594 "/>
</g>
</svg>
