<?xml version="1.0" encoding="UTF-8"?>
<svg xmlns="http://www.w3.org/2000/svg" xmlns:xlink="http://www.w3.org/1999/xlink" width="40px" height="41px" viewBox="0 0 40 40" version="1.1">
<g id="surface1">
<path style=" stroke:none;fill-rule:nonzero;fill:rgb(0%,0%,0%);fill-opacity:1;" d="M 32.277344 20.5625 C 34.316406 20.5625 35.96875 18.933594 35.96875 16.929688 C 35.96875 14.921875 34.316406 13.296875 32.277344 13.296875 C 30.242188 13.296875 28.589844 14.921875 28.589844 16.929688 C 28.589844 17.109375 28.605469 17.292969 28.632812 17.472656 L 24.363281 19.230469 C 23.597656 17.898438 22.261719 16.984375 20.726562 16.742188 L 20.726562 12.230469 C 22.714844 11.785156 23.957031 9.835938 23.503906 7.878906 C 23.050781 5.925781 21.074219 4.699219 19.085938 5.144531 C 17.101562 5.59375 15.855469 7.539062 16.308594 9.496094 C 16.625 10.855469 17.703125 11.917969 19.085938 12.230469 L 19.085938 16.738281 C 17.566406 16.980469 16.242188 17.882812 15.46875 19.191406 L 11.316406 17.484375 C 11.628906 15.503906 10.246094 13.648438 8.234375 13.339844 C 6.21875 13.035156 4.332031 14.390625 4.023438 16.375 C 3.710938 18.359375 5.089844 20.214844 7.105469 20.519531 C 8.5 20.734375 9.890625 20.144531 10.699219 19.007812 L 14.886719 20.695312 C 14.589844 22.105469 14.925781 23.578125 15.808594 24.730469 L 12.414062 28.101562 C 10.679688 27.046875 8.40625 27.578125 7.335938 29.285156 C 6.265625 30.992188 6.804688 33.230469 8.539062 34.285156 C 10.273438 35.339844 12.546875 34.808594 13.617188 33.101562 C 14.367188 31.90625 14.351562 30.394531 13.574219 29.21875 L 16.992188 25.855469 C 18.746094 27.054688 21.074219 27.054688 22.828125 25.855469 L 26.242188 29.214844 C 25.132812 30.898438 25.621094 33.148438 27.332031 34.238281 C 29.042969 35.332031 31.328125 34.847656 32.4375 33.164062 C 33.546875 31.480469 33.058594 29.234375 31.347656 28.140625 C 30.140625 27.375 28.59375 27.363281 27.378906 28.113281 L 24.007812 24.75 C 24.683594 23.878906 25.050781 22.8125 25.050781 21.714844 C 25.046875 21.386719 25.015625 21.058594 24.949219 20.734375 L 29.261719 19 C 29.949219 19.972656 31.074219 20.554688 32.277344 20.5625 Z M 32.277344 14.703125 C 32.851562 14.703125 33.316406 15.160156 33.316406 15.726562 C 33.316406 16.289062 32.851562 16.746094 32.277344 16.746094 C 31.707031 16.746094 31.242188 16.289062 31.242188 15.726562 C 31.242188 15.722656 31.242188 15.722656 31.242188 15.722656 C 31.246094 15.160156 31.707031 14.707031 32.277344 14.703125 Z M 30.230469 18.015625 C 30.230469 17.855469 30.308594 17.707031 30.4375 17.609375 C 30.742188 17.394531 31.085938 17.230469 31.445312 17.125 C 31.722656 17.046875 32.011719 17.003906 32.300781 17 C 32.589844 17 32.875 17.042969 33.152344 17.125 C 33.515625 17.222656 33.859375 17.386719 34.160156 17.609375 C 34.285156 17.707031 34.363281 17.855469 34.367188 18.015625 L 34.367188 18.789062 L 30.207031 18.789062 Z M 7.695312 14.703125 C 8.269531 14.703125 8.734375 15.160156 8.734375 15.726562 C 8.734375 16.289062 8.269531 16.746094 7.695312 16.746094 C 7.125 16.746094 6.660156 16.289062 6.660156 15.726562 C 6.660156 15.722656 6.660156 15.722656 6.660156 15.722656 C 6.664062 15.167969 7.113281 14.71875 7.675781 14.703125 Z M 9.746094 18.792969 L 5.605469 18.792969 L 5.605469 18.015625 C 5.609375 17.855469 5.6875 17.707031 5.8125 17.609375 C 6.121094 17.394531 6.460938 17.230469 6.824219 17.125 C 7.101562 17.046875 7.386719 17.003906 7.675781 17 C 7.964844 17 8.253906 17.042969 8.527344 17.125 C 8.894531 17.222656 9.234375 17.386719 9.539062 17.609375 C 9.664062 17.707031 9.738281 17.855469 9.742188 18.015625 Z M 10.476562 28.96875 C 11.046875 28.96875 11.511719 29.425781 11.511719 29.984375 C 11.511719 30.546875 11.046875 31.003906 10.476562 31.003906 C 9.90625 31.003906 9.441406 30.546875 9.441406 29.984375 C 9.441406 29.425781 9.90625 28.96875 10.476562 28.96875 Z M 12.527344 33.054688 L 8.425781 33.054688 L 8.425781 32.273438 C 8.429688 32.117188 8.503906 31.96875 8.632812 31.871094 C 8.9375 31.65625 9.277344 31.492188 9.640625 31.390625 C 9.910156 31.3125 10.191406 31.265625 10.476562 31.257812 C 10.765625 31.257812 11.050781 31.300781 11.328125 31.386719 C 11.695312 31.480469 12.035156 31.644531 12.335938 31.867188 C 12.464844 31.964844 12.539062 32.113281 12.542969 32.269531 Z M 19.90625 6.464844 C 20.476562 6.464844 20.941406 6.921875 20.941406 7.484375 C 20.941406 8.046875 20.476562 8.5 19.90625 8.5 C 19.339844 8.5 18.875 8.046875 18.875 7.488281 C 18.871094 6.925781 19.332031 6.46875 19.902344 6.464844 C 19.90625 6.464844 19.90625 6.464844 19.90625 6.464844 Z M 17.855469 10.550781 L 17.855469 9.773438 C 17.859375 9.613281 17.9375 9.464844 18.0625 9.367188 C 18.367188 9.152344 18.710938 8.992188 19.070312 8.886719 C 19.34375 8.808594 19.625 8.761719 19.90625 8.753906 C 20.195312 8.753906 20.484375 8.800781 20.761719 8.882812 C 21.125 8.976562 21.46875 9.140625 21.769531 9.363281 C 21.894531 9.460938 21.96875 9.609375 21.972656 9.765625 L 21.972656 10.546875 Z M 19.90625 18.625 C 20.703125 18.621094 21.347656 19.253906 21.351562 20.035156 C 21.351562 20.820312 20.710938 21.453125 19.914062 21.457031 C 19.121094 21.460938 18.472656 20.828125 18.472656 20.042969 C 18.472656 20.042969 18.472656 20.042969 18.472656 20.039062 C 18.472656 19.257812 19.113281 18.625 19.90625 18.625 Z M 22.777344 24.304688 L 17.035156 24.304688 L 17.035156 23.230469 C 17.042969 23.007812 17.148438 22.800781 17.324219 22.664062 C 17.75 22.363281 18.222656 22.136719 18.726562 21.988281 C 19.109375 21.878906 19.507812 21.816406 19.90625 21.808594 C 20.308594 21.808594 20.707031 21.867188 21.09375 21.980469 C 21.601562 22.113281 22.078125 22.339844 22.496094 22.65625 C 22.671875 22.796875 22.777344 23.007812 22.777344 23.230469 Z M 29.339844 28.96875 C 29.910156 28.96875 30.371094 29.425781 30.371094 29.984375 C 30.371094 30.546875 29.910156 31.003906 29.339844 31.003906 C 28.769531 31.003906 28.304688 30.546875 28.304688 29.984375 C 28.304688 29.425781 28.769531 28.96875 29.339844 28.96875 Z M 27.289062 32.273438 C 27.292969 32.117188 27.367188 31.96875 27.492188 31.871094 C 27.800781 31.65625 28.140625 31.492188 28.503906 31.390625 C 28.773438 31.3125 29.054688 31.265625 29.339844 31.257812 C 29.628906 31.257812 29.914062 31.300781 30.191406 31.386719 C 30.558594 31.480469 30.898438 31.644531 31.199219 31.867188 C 31.328125 31.964844 31.402344 32.113281 31.40625 32.269531 L 31.40625 33.050781 L 27.289062 33.050781 Z M 27.289062 32.273438 "/>
</g>
</svg>
