<svg width="40" height="40" xmlns="http://www.w3.org/2000/svg" xmlns:xlink="http://www.w3.org/1999/xlink" xml:space="preserve" overflow="hidden"><defs><clipPath id="clip0"><rect x="345" y="144" width="40" height="40"/></clipPath><clipPath id="clip1"><rect x="346" y="145" width="39" height="39"/></clipPath><clipPath id="clip2"><rect x="346" y="145" width="39" height="39"/></clipPath><clipPath id="clip3"><rect x="346" y="145" width="39" height="39"/></clipPath></defs><g clip-path="url(#clip0)" transform="translate(-345 -144)"><g clip-path="url(#clip1)"><g clip-path="url(#clip2)"><g clip-path="url(#clip3)"><path d="M364.529 172.682C364.529 173.701 363.703 174.526 362.685 174.526 361.666 174.526 360.84 173.701 360.84 172.682 360.84 171.663 361.666 170.837 362.685 170.837 363.703 170.837 364.529 171.663 364.529 172.682Z" fill="#000000" fill-rule="nonzero" fill-opacity="1"/><path d="M366.312 178.719 366.312 176.874C366.306 176.587 366.172 176.317 365.947 176.139 365.417 175.731 364.81 175.432 364.163 175.262 363.675 175.112 363.167 175.035 362.656 175.034 362.146 175.042 361.639 175.118 361.149 175.262 360.509 175.451 359.906 175.748 359.366 176.139 359.14 176.317 359.006 176.587 359 176.874L359 178.719Z" fill="#000000" fill-rule="nonzero" fill-opacity="1"/><path d="M372.597 172.682C372.597 173.701 371.771 174.526 370.753 174.526 369.734 174.526 368.908 173.701 368.908 172.682 368.908 171.663 369.734 170.837 370.753 170.837 371.771 170.837 372.597 171.663 372.597 172.682Z" fill="#000000" fill-rule="nonzero" fill-opacity="1"/><path d="M374.438 178.719 374.438 176.874C374.431 176.587 374.297 176.317 374.072 176.139 373.542 175.731 372.935 175.432 372.288 175.262 371.8 175.112 371.292 175.035 370.781 175.034 370.271 175.042 369.764 175.118 369.274 175.262 368.634 175.451 368.031 175.748 367.491 176.139 367.265 176.317 367.131 176.587 367.125 176.874L367.125 178.719Z" fill="#000000" fill-rule="nonzero" fill-opacity="1"/><path d="M380.722 172.682C380.722 173.701 379.896 174.526 378.878 174.526 377.859 174.526 377.033 173.701 377.033 172.682 377.033 171.663 377.859 170.837 378.878 170.837 379.896 170.837 380.722 171.663 380.722 172.682Z" fill="#000000" fill-rule="nonzero" fill-opacity="1"/><path d="M382.562 178.719 382.562 176.874C382.556 176.587 382.422 176.317 382.197 176.139 381.667 175.731 381.06 175.432 380.413 175.262 379.925 175.112 379.417 175.035 378.906 175.034 378.396 175.042 377.889 175.118 377.399 175.262 376.759 175.451 376.156 175.748 375.616 176.139 375.39 176.317 375.256 176.587 375.25 176.874L375.25 178.719Z" fill="#000000" fill-rule="nonzero" fill-opacity="1"/><path d="M357.139 155.628C357.139 156.96 356.059 158.041 354.726 158.041 353.394 158.041 352.313 156.96 352.313 155.628 352.313 154.295 353.394 153.214 354.726 153.214 356.059 153.214 357.139 154.295 357.139 155.628Z" fill="#000000" fill-rule="nonzero" fill-opacity="1"/><path d="M368.957 154.697C368.718 154.462 368.335 154.462 368.096 154.697L362.847 159.946C362.428 159.828 361.977 159.942 361.665 160.247 361.58 160.332 360.064 162.81 360.064 162.81L359.609 160.872C359.549 160.622 359.424 160.393 359.248 160.206 358.499 159.601 357.637 159.15 356.713 158.882 356.059 158.742 355.394 158.662 354.726 158.642 354.052 158.652 353.383 158.753 352.736 158.943 351.803 159.187 350.937 159.64 350.205 160.267 350.026 160.452 349.902 160.683 349.843 160.933 349.843 160.933 348.092 168.286 348.092 168.408 348.092 169.081 348.638 169.627 349.311 169.627 349.85 169.613 350.316 169.246 350.457 168.725L351.724 163.48 351.724 180.344 354.125 180.344 354.125 169.493 355.344 169.493 355.344 180.344 357.741 180.344 357.741 163.403 358.188 165.312C358.219 165.444 358.306 165.556 358.427 165.617 358.894 165.976 359.463 166.176 360.052 166.19 360.436 166.244 360.815 166.071 361.027 165.747L363.505 161.685C363.664 161.435 363.723 161.135 363.672 160.844L368.953 155.562C369.192 155.324 369.194 154.938 368.957 154.697Z" fill="#000000" fill-rule="nonzero" fill-opacity="1"/><path d="M377.281 149.062 357.375 149.062C356.478 149.062 355.75 149.79 355.75 150.688L355.75 152.15C356.371 152.319 356.934 152.657 357.375 153.125L357.375 150.688 377.281 150.688 377.281 164.094 363.416 164.094 362.425 165.719 377.281 165.719C378.179 165.719 378.906 164.991 378.906 164.094L378.906 150.688C378.906 149.79 378.179 149.062 377.281 149.062Z" fill="#000000" fill-rule="nonzero" fill-opacity="1"/></g></g></g></g></svg>