<svg width="34" height="32" xmlns="http://www.w3.org/2000/svg" xmlns:xlink="http://www.w3.org/1999/xlink" xml:space="preserve" overflow="hidden"><defs><clipPath id="clip0"><rect x="790" y="410" width="34" height="32"/></clipPath><clipPath id="clip1"><rect x="791" y="411" width="32" height="31"/></clipPath><clipPath id="clip2"><rect x="791" y="411" width="32" height="31"/></clipPath><clipPath id="clip3"><rect x="791" y="411" width="32" height="31"/></clipPath></defs><g clip-path="url(#clip0)" transform="translate(-790 -410)"><g clip-path="url(#clip1)"><g clip-path="url(#clip2)"><g clip-path="url(#clip3)"><path d="M15.5 6.29688C16.9208 6.29688 18.0833 5.13437 18.0833 3.71354 18.0833 2.29271 16.9208 1.13021 15.5 1.13021 14.0792 1.13021 12.9167 2.29271 12.9167 3.71354 12.9167 5.13437 14.0792 6.29688 15.5 6.29688" fill="#000000" fill-rule="nonzero" fill-opacity="1" transform="matrix(1.03226 0 0 1 791 411)"/><path d="M21.9583 15.9844 23.25 12.1094 7.75 12.1094 9.04167 15.9844 10.9792 15.9844 12.2708 28.5781 10.3333 28.5781 10.3333 29.8698 20.6667 29.8698 20.6667 28.5781 18.7292 28.5781 20.0208 15.9844Z" fill="#000000" fill-rule="nonzero" fill-opacity="1" transform="matrix(1.03226 0 0 1 791 411)"/><path d="M20.7312 9.33229C20.6667 9.07396 20.5375 8.81562 20.3438 8.62187 19.5687 7.97604 18.6646 7.52396 17.6312 7.20104 16.9208 7.07187 16.2104 6.94271 15.5 6.94271 14.7896 6.94271 14.0792 7.07187 13.3687 7.26562 12.3354 7.52396 11.4313 8.04062 10.6562 8.68646 10.4625 8.88021 10.3333 9.13854 10.2687 9.39687L9.94583 10.8177 21.0865 10.8177 20.7312 9.33229Z" fill="#000000" fill-rule="nonzero" fill-opacity="1" transform="matrix(1.03226 0 0 1 791 411)"/></g></g></g></g></svg>